# xmcd CD database file
#
# Track frame offsets:
#	150
#	18850
#	47135
#	78620
#	98792
#	123402
#	139000
#	169495
#	172580
#	200135
#	227865
#	254267
#	281520
#
# Disc length: 4266 seconds
#
# Revision: 1
# Processed by: cddbd v1.5PL3 Copyright (c) Steve Scherf et al.
# Submitted via: CDex 1.51
#
DISCID=b110a80d
DTITLE=Char - Electric Guitar Concert (Disc-1)
DYEAR=1996
DGENRE=JRock
TTITLE0=Intro
TTITLE1=Smoky
TTITLE2=Shinin' You, Shinin' Day
TTITLE3=空模様のかげんが悪くなる前に
TTITLE4=All Around Me
TTITLE5=逆光線
TTITLE6=The Leading Of The Leaving(Loneliness)
TTITLE7=Kindesalter
TTITLE8=気絶するほど悩ましい
TTITLE9=籠の鳥
TTITLE10=Song In My Heart
TTITLE11=So Much In Love
TTITLE12=Dazed (Dazed By Love)
EXTD=YEAR: 1996
EXTT0=
EXTT1=
EXTT2=
EXTT3=
EXTT4=
EXTT5=
EXTT6=
EXTT7=
EXTT8=
EXTT9=
EXTT10=
EXTT11=
EXTT12=
PLAYORDER=
